<svg width="122" height="622" viewBox="0 0 122 622" fill="none" xmlns="http://www.w3.org/2000/svg">
<path d="M25.2469 6.45508V0.992188H38.7332V14.6494H33.4412V6.45508H25.2469Z" fill="#BF8468" fill-opacity="0.46"/>
<path d="M0.152344 14.8198V1.16309H13.6387V6.45508H5.44446V14.8198H0.152344Z" fill="#BF8468" fill-opacity="0.46"/>
<path d="M25.2469 32.4033H33.4412V24.0381H38.7332V37.6953H25.2469V32.4033Z" fill="#BF8468" fill-opacity="0.46"/>
<path d="M13.8093 32.4033V37.6953H0.32312V24.0381H5.61523V32.4033H13.8093Z" fill="#BF8468" fill-opacity="0.46"/>
<path d="M0.152344 173.923V160.437L13.6387 160.266V165.558H5.44446V173.923H0.152344Z" fill="#BF8468" fill-opacity="0.46"/>
<path d="M33.4412 165.729H25.2469V160.437H38.7332V174.094H33.4412V165.729Z" fill="#BF8468" fill-opacity="0.46"/>
<path d="M25.2469 191.506H33.4412V183.141H38.7332V196.798H25.2469V191.506Z" fill="#BF8468" fill-opacity="0.46"/>
<path d="M13.8093 191.506V196.798H0.32312V183.141H5.61523V191.506H13.8093Z" fill="#BF8468" fill-opacity="0.46"/>
<path d="M0.152344 280.105V266.448H13.6387V271.74H5.44446V280.105H0.152344Z" fill="#BF8468" fill-opacity="0.46"/>
<path d="M33.4412 271.74H25.2469V266.448H38.7332V280.105H33.4412V271.74Z" fill="#BF8468" fill-opacity="0.46"/>
<path d="M25.2469 297.688H33.4412V289.324H38.7332V302.98H25.2469V297.688Z" fill="#BF8468" fill-opacity="0.46"/>
<path d="M13.6387 302.98H0.152344V289.494H5.44446V297.688H13.6387V302.98Z" fill="#BF8468" fill-opacity="0.46"/>
<path d="M78.7391 6.45508V0.992188H92.2253V14.6494H86.9333V6.45508H78.7391Z" fill="#BF8468" fill-opacity="0.46"/>
<path d="M53.6445 1.16309V14.8198H58.9366V6.45508H67.1309V1.16309H53.6445Z" fill="#BF8468" fill-opacity="0.46"/>
<path d="M86.9333 32.4033H78.7391V37.6953H92.2253V24.0381H86.9333V32.4033Z" fill="#BF8468" fill-opacity="0.46"/>
<path d="M67.3015 37.6953V32.4033H59.1074V24.0381H53.8153V37.6953H67.3015Z" fill="#BF8468" fill-opacity="0.46"/>
<path d="M53.6445 54.2539V67.9111H58.9366V59.5459H67.1309V54.2539H53.6445Z" fill="#BF8468" fill-opacity="0.46"/>
<path d="M78.7391 59.5459H86.9333V67.9111H92.2253V54.2539H78.7391V59.5459Z" fill="#BF8468" fill-opacity="0.46"/>
<path d="M86.9333 85.4941H78.7391V90.7861H92.2253V77.1299H86.9333V85.4941Z" fill="#BF8468" fill-opacity="0.46"/>
<path d="M53.6445 90.7861H67.1309V85.4941H58.9366V77.1299H53.6445V90.7861Z" fill="#BF8468" fill-opacity="0.46"/>
<path d="M53.6445 107.346V121.002H58.9366V112.638H67.1309V107.346H53.6445Z" fill="#BF8468" fill-opacity="0.46"/>
<path d="M78.7391 112.638H86.9333V121.002H92.2253V107.346H78.7391V112.638Z" fill="#BF8468" fill-opacity="0.46"/>
<path d="M86.9333 138.415H78.7391V143.707H92.2253V130.05H86.9333V138.415Z" fill="#BF8468" fill-opacity="0.46"/>
<path d="M53.6445 143.707H67.1309V138.415H58.9366V130.05H53.6445V143.707Z" fill="#BF8468" fill-opacity="0.46"/>
<path d="M53.6445 160.437V173.923H58.9366V165.558H67.1309V160.266L53.6445 160.437Z" fill="#BF8468" fill-opacity="0.46"/>
<path d="M78.7391 165.729H86.9333V174.094H92.2253V160.437H78.7391V165.729Z" fill="#BF8468" fill-opacity="0.46"/>
<path d="M86.9333 191.506H78.7391V196.798H92.2253V183.141H86.9333V191.506Z" fill="#BF8468" fill-opacity="0.46"/>
<path d="M67.3015 196.798V191.506H59.1074V183.141H53.8153V196.798H67.3015Z" fill="#BF8468" fill-opacity="0.46"/>
<path d="M53.6445 266.448V280.105H58.9366V271.74H67.1309V266.448H53.6445Z" fill="#BF8468" fill-opacity="0.46"/>
<path d="M78.7391 271.74H86.9333V280.105H92.2253V266.448H78.7391V271.74Z" fill="#BF8468" fill-opacity="0.46"/>
<path d="M86.9333 297.688H78.7391V302.98H92.2253V289.324H86.9333V297.688Z" fill="#BF8468" fill-opacity="0.46"/>
<path d="M53.6445 302.98H67.1309V297.688H58.9366V289.494H53.6445V302.98Z" fill="#BF8468" fill-opacity="0.46"/>
<path d="M108.152 1.16309V14.8198H113.444V6.45508H121.639V1.16309H108.152Z" fill="#BF8468" fill-opacity="0.46"/>
<path d="M121.809 37.6953V32.4033H113.615V24.0381H108.323V37.6953H121.809Z" fill="#BF8468" fill-opacity="0.46"/>
<path d="M108.152 54.2539V67.9111H113.444V59.5459H121.639V54.2539H108.152Z" fill="#BF8468" fill-opacity="0.46"/>
<path d="M108.152 90.7861H121.639V85.4941H113.444V77.1299H108.152V90.7861Z" fill="#BF8468" fill-opacity="0.46"/>
<path d="M108.152 107.346V121.002H113.444V112.638H121.639V107.346H108.152Z" fill="#BF8468" fill-opacity="0.46"/>
<path d="M108.152 143.707H121.639V138.415H113.444V130.05H108.152V143.707Z" fill="#BF8468" fill-opacity="0.46"/>
<path d="M108.152 160.437V173.923H113.444V165.558H121.639V160.266L108.152 160.437Z" fill="#BF8468" fill-opacity="0.46"/>
<path d="M121.809 196.798V191.506H113.615V183.141H108.323V196.798H121.809Z" fill="#BF8468" fill-opacity="0.46"/>
<path d="M108.152 213.357V227.014H113.444V218.649H121.639V213.357H108.152Z" fill="#BF8468" fill-opacity="0.46"/>
<path d="M121.809 249.889V244.597H113.615V236.232H108.323V249.889H121.809Z" fill="#BF8468" fill-opacity="0.46"/>
<path d="M108.152 266.448V280.105H113.444V271.74H121.639V266.448H108.152Z" fill="#BF8468" fill-opacity="0.46"/>
<path d="M108.152 302.98H121.639V297.688H113.444V289.494H108.152V302.98Z" fill="#BF8468" fill-opacity="0.46"/>
<path d="M108.152 319.54V333.196H113.444V324.832H121.639V319.54H108.152Z" fill="#BF8468" fill-opacity="0.46"/>
<path d="M113.444 342.415H108.152V356.072H121.639V350.78H113.444V342.415Z" fill="#BF8468" fill-opacity="0.46"/>
<path d="M0.152344 545.095V531.608L13.6387 531.438V536.73H5.44446V545.095H0.152344Z" fill="#BF8468" fill-opacity="0.46"/>
<path d="M33.4412 536.9H25.2469V531.608H38.7332V545.266H33.4412V536.9Z" fill="#BF8468" fill-opacity="0.46"/>
<path d="M25.2469 562.678H33.4412V554.313H38.7332V567.97H25.2469V562.678Z" fill="#BF8468" fill-opacity="0.46"/>
<path d="M13.8093 562.678V567.97H0.32312V554.313H5.61523V562.678H13.8093Z" fill="#BF8468" fill-opacity="0.46"/>
<path d="M78.7391 377.627V372.164H92.2253V385.821H86.9333V377.627H78.7391Z" fill="#BF8468" fill-opacity="0.46"/>
<path d="M53.6445 372.335V385.992H58.9366V377.627H67.1309V372.335H53.6445Z" fill="#BF8468" fill-opacity="0.46"/>
<path d="M86.9333 403.575H78.7391V408.867H92.2253V395.21H86.9333V403.575Z" fill="#BF8468" fill-opacity="0.46"/>
<path d="M67.3015 408.867V403.575H59.1074V395.21H53.8153V408.867H67.3015Z" fill="#BF8468" fill-opacity="0.46"/>
<path d="M53.6445 478.518V492.174H58.9366V483.81H67.1309V478.518H53.6445Z" fill="#BF8468" fill-opacity="0.46"/>
<path d="M78.7391 483.81H86.9333V492.174H92.2253V478.518H78.7391V483.81Z" fill="#BF8468" fill-opacity="0.46"/>
<path d="M86.9333 509.587H78.7391V514.879H92.2253V501.222H86.9333V509.587Z" fill="#BF8468" fill-opacity="0.46"/>
<path d="M53.6445 514.879H67.1309V509.587H58.9366V501.222H53.6445V514.879Z" fill="#BF8468" fill-opacity="0.46"/>
<path d="M53.6445 531.608V545.095H58.9366V536.73H67.1309V531.438L53.6445 531.608Z" fill="#BF8468" fill-opacity="0.46"/>
<path d="M78.7391 536.9H86.9333V545.266H92.2253V531.608H78.7391V536.9Z" fill="#BF8468" fill-opacity="0.46"/>
<path d="M86.9333 562.678H78.7391V567.97H92.2253V554.313H86.9333V562.678Z" fill="#BF8468" fill-opacity="0.46"/>
<path d="M67.3015 567.97V562.678H59.1074V554.313H53.8153V567.97H67.3015Z" fill="#BF8468" fill-opacity="0.46"/>
<path d="M108.152 372.335V385.992H113.444V377.627H121.639V372.335H108.152Z" fill="#BF8468" fill-opacity="0.46"/>
<path d="M121.809 408.867V403.575H113.615V395.21H108.323V408.867H121.809Z" fill="#BF8468" fill-opacity="0.46"/>
<path d="M108.152 425.426V439.083H113.444V430.718H121.639V425.426H108.152Z" fill="#BF8468" fill-opacity="0.46"/>
<path d="M108.152 461.958H121.639V456.666H113.444V448.302H108.152V461.958Z" fill="#BF8468" fill-opacity="0.46"/>
<path d="M108.152 478.518V492.174H113.444V483.81H121.639V478.518H108.152Z" fill="#BF8468" fill-opacity="0.46"/>
<path d="M108.152 514.879H121.639V509.587H113.444V501.222H108.152V514.879Z" fill="#BF8468" fill-opacity="0.46"/>
<path d="M108.152 531.608V545.095H113.444V536.73H121.639V531.438L108.152 531.608Z" fill="#BF8468" fill-opacity="0.46"/>
<path d="M121.809 567.97V562.678H113.615V554.313H108.323V567.97H121.809Z" fill="#BF8468" fill-opacity="0.46"/>
<path d="M108.152 584.529V598.186H113.444V589.821H121.639V584.529H108.152Z" fill="#BF8468" fill-opacity="0.46"/>
<path d="M121.809 621.061V615.769H113.615V607.404H108.323V621.061H121.809Z" fill="#BF8468" fill-opacity="0.46"/>
</svg>
