<svg width="1680" height="249" viewBox="0 0 1680 249" fill="none" xmlns="http://www.w3.org/2000/svg">
<path d="M182.579 0H169.093V13.657H174.385V5.29199H182.579V0Z" fill="#C6C0B8" fill-opacity="0.15"/>
<path d="M202.381 5.29199H194.187V0H207.673V13.657H202.381V5.29199Z" fill="#C6C0B8" fill-opacity="0.15"/>
<path d="M194.358 31.2402H202.552V22.8752H207.844V36.5322H194.358V31.2402Z" fill="#C6C0B8" fill-opacity="0.15"/>
<path d="M169.093 36.5322V22.8752H174.385V31.2402H182.579V36.5322H169.093Z" fill="#C6C0B8" fill-opacity="0.15"/>
<path d="M169.093 66.748V53.0913H182.579V58.3833H174.385V66.748H169.093Z" fill="#C6C0B8" fill-opacity="0.15"/>
<path d="M202.381 58.3833H194.187V52.9204H207.673V66.5774H202.381V58.3833Z" fill="#C6C0B8" fill-opacity="0.15"/>
<path d="M194.358 84.3313H202.552V75.9666H207.844V89.6235H194.358V84.3313Z" fill="#C6C0B8" fill-opacity="0.15"/>
<path d="M169.093 89.6235V75.9666H174.385V84.3313H182.579V89.6235H169.093Z" fill="#C6C0B8" fill-opacity="0.15"/>
<path d="M169.093 119.839V106.182H182.579V111.474H174.385V119.839H169.093Z" fill="#C6C0B8" fill-opacity="0.15"/>
<path d="M202.381 111.474H194.187V106.182H207.673V119.839H202.381V111.474Z" fill="#C6C0B8" fill-opacity="0.15"/>
<path d="M194.358 137.423H202.552V129.058H207.844V142.715H194.358V137.423Z" fill="#C6C0B8" fill-opacity="0.15"/>
<path d="M169.093 142.715V129.058H174.385V137.423H182.579V142.715H169.093Z" fill="#C6C0B8" fill-opacity="0.15"/>
<path d="M169.093 172.931V159.274H182.579V164.566H174.385V172.931H169.093Z" fill="#C6C0B8" fill-opacity="0.15"/>
<path d="M202.381 164.566H194.187V159.274H207.673V172.931H202.381V164.566Z" fill="#C6C0B8" fill-opacity="0.15"/>
<path d="M194.358 190.343H202.552V181.978H207.844V195.635H194.358V190.343Z" fill="#C6C0B8" fill-opacity="0.15"/>
<path d="M169.093 195.806V182.149H174.385V190.514H182.579V195.806H169.093Z" fill="#C6C0B8" fill-opacity="0.15"/>
<path d="M347.827 58.3833H339.633V66.748H334.341V53.0913H347.827V58.3833Z" fill="#C6C0B8" fill-opacity="0.15"/>
<path d="M367.63 58.3833H359.436V52.9204H372.922V66.5774H367.63V58.3833Z" fill="#C6C0B8" fill-opacity="0.15"/>
<path d="M359.436 84.3313H367.63V75.9666H372.922V89.6235H359.436V84.3313Z" fill="#C6C0B8" fill-opacity="0.15"/>
<path d="M334.341 75.9666H339.633V84.3313H347.827V89.6235H334.341V75.9666Z" fill="#C6C0B8" fill-opacity="0.15"/>
<path d="M284.664 119.669H279.372V106.012H292.858V111.304H284.664V119.669Z" fill="#C6C0B8" fill-opacity="0.15"/>
<path d="M317.953 119.669H312.661V111.304H304.467V106.012H317.953V119.669Z" fill="#C6C0B8" fill-opacity="0.15"/>
<path d="M317.953 129.058V142.715H304.467V137.423H312.661V129.058H317.953Z" fill="#C6C0B8" fill-opacity="0.15"/>
<path d="M279.372 142.715V129.058H284.664V137.423H292.858V142.715H279.372Z" fill="#C6C0B8" fill-opacity="0.15"/>
<path d="M347.827 111.474H339.633V119.839H334.341V106.182H347.827V111.474Z" fill="#C6C0B8" fill-opacity="0.15"/>
<path d="M367.63 111.474H359.436V106.182H372.922V119.839H367.63V111.474Z" fill="#C6C0B8" fill-opacity="0.15"/>
<path d="M359.436 137.423H367.63V129.058H372.922V142.715H359.436V137.423Z" fill="#C6C0B8" fill-opacity="0.15"/>
<path d="M334.341 129.058H339.633V137.423H347.827V142.715H334.341V129.058Z" fill="#C6C0B8" fill-opacity="0.15"/>
<path d="M284.664 172.76H279.372V159.103H292.858V164.395H284.664V172.76Z" fill="#C6C0B8" fill-opacity="0.15"/>
<path d="M317.953 159.103V172.76H312.661V164.395H304.467V159.103H317.953Z" fill="#C6C0B8" fill-opacity="0.15"/>
<path d="M317.953 181.978V195.635H304.467V190.343H312.661V181.978H317.953Z" fill="#C6C0B8" fill-opacity="0.15"/>
<path d="M279.372 195.806V182.149H284.664V190.514H292.858V195.806H279.372Z" fill="#C6C0B8" fill-opacity="0.15"/>
<path d="M347.827 164.566H339.633V172.931H334.341V159.274H347.827V164.566Z" fill="#C6C0B8" fill-opacity="0.15"/>
<path d="M367.63 164.566H359.436V159.274H372.922V172.931H367.63V164.566Z" fill="#C6C0B8" fill-opacity="0.15"/>
<path d="M359.436 190.343H367.63V181.978H372.922V195.635H359.436V190.343Z" fill="#C6C0B8" fill-opacity="0.15"/>
<path d="M334.341 182.149H339.633V190.514H347.827V195.806H334.341V182.149Z" fill="#C6C0B8" fill-opacity="0.15"/>
<path d="M-51.125 66.748V53.0913H-37.6388V58.3833H-45.8329V66.748H-51.125Z" fill="#C6C0B8" fill-opacity="0.15"/>
<path d="M-26.0304 53.0913H-12.5442V66.5774H-17.8363V58.3833H-26.0304V53.0913Z" fill="#C6C0B8" fill-opacity="0.15"/>
<path d="M-12.5442 75.9666V89.6235H-26.0304V84.3313H-17.8363V75.9666H-12.5442Z" fill="#C6C0B8" fill-opacity="0.15"/>
<path d="M-51.125 89.6235V75.9666H-45.8329V84.3313H-37.6388V89.6235H-51.125Z" fill="#C6C0B8" fill-opacity="0.15"/>
<path d="M3.84404 66.748V53.0913H17.3302V58.3833H9.13609V66.748H3.84404Z" fill="#C6C0B8" fill-opacity="0.15"/>
<path d="M37.1327 58.3833H28.9386V52.9204H42.4248V66.5774H37.1327V58.3833Z" fill="#C6C0B8" fill-opacity="0.15"/>
<path d="M29.1093 84.3313H37.3035V75.9666H42.5955V89.6235H29.1093V84.3313Z" fill="#C6C0B8" fill-opacity="0.15"/>
<path d="M9.3068 84.3313H17.5009V89.6235H4.01475V75.9666H9.3068V84.3313Z" fill="#C6C0B8" fill-opacity="0.15"/>
<path d="M-45.8329 119.669H-51.125V106.012H-37.6388V111.304H-45.8329V119.669Z" fill="#C6C0B8" fill-opacity="0.15"/>
<path d="M-12.5442 106.012V119.669H-17.8363V111.304H-26.0304V106.012H-12.5442Z" fill="#C6C0B8" fill-opacity="0.15"/>
<path d="M-12.5442 129.058V142.715H-26.0304V137.423H-17.8363V129.058H-12.5442Z" fill="#C6C0B8" fill-opacity="0.15"/>
<path d="M-51.125 142.715V129.058H-45.8329V137.423H-37.6388V142.715H-51.125Z" fill="#C6C0B8" fill-opacity="0.15"/>
<path d="M9.13609 119.669H3.84404V106.012H17.3302V111.304H9.13609V119.669Z" fill="#C6C0B8" fill-opacity="0.15"/>
<path d="M37.1327 111.474H28.9386V106.182H42.4248V119.839H37.1327V111.474Z" fill="#C6C0B8" fill-opacity="0.15"/>
<path d="M29.1093 137.423H37.3035V129.058H42.5955V142.715H29.1093V137.423Z" fill="#C6C0B8" fill-opacity="0.15"/>
<path d="M9.3068 137.423H17.5009V142.715H4.01475V129.058H9.3068V137.423Z" fill="#C6C0B8" fill-opacity="0.15"/>
<path d="M-45.8329 172.76H-51.125V159.103H-37.6388V164.395H-45.8329V172.76Z" fill="#C6C0B8" fill-opacity="0.15"/>
<path d="M-12.5442 159.103V172.76H-17.8363V164.395H-26.0304V159.103H-12.5442Z" fill="#C6C0B8" fill-opacity="0.15"/>
<path d="M-12.5442 181.978V195.635H-26.0304V190.343H-17.8363V181.978H-12.5442Z" fill="#C6C0B8" fill-opacity="0.15"/>
<path d="M-51.125 195.806V182.149H-45.8329V190.514H-37.6388V195.806H-51.125Z" fill="#C6C0B8" fill-opacity="0.15"/>
<path d="M9.13609 172.76H3.84404V159.103H17.3302V164.395H9.13609V172.76Z" fill="#C6C0B8" fill-opacity="0.15"/>
<path d="M37.1327 164.566H28.9386V159.274H42.4248V172.931H37.1327V164.566Z" fill="#C6C0B8" fill-opacity="0.15"/>
<path d="M29.1093 190.343H37.3035V181.978H42.5955V195.635H29.1093V190.343Z" fill="#C6C0B8" fill-opacity="0.15"/>
<path d="M9.3068 190.343H17.5009V195.635H4.01475V181.978H9.3068V190.343Z" fill="#C6C0B8" fill-opacity="0.15"/>
<path d="M127.61 5.29199H119.416V13.657H114.124V0H127.61V5.29199Z" fill="#C6C0B8" fill-opacity="0.15"/>
<path d="M147.242 5.29199H139.047V0H152.534V13.657H147.242V5.29199Z" fill="#C6C0B8" fill-opacity="0.15"/>
<path d="M139.218 31.2402H147.412V22.8752H152.704V36.5322H139.218V31.2402Z" fill="#C6C0B8" fill-opacity="0.15"/>
<path d="M114.124 22.8752H119.416V31.2402H127.61V36.5322H114.124V22.8752Z" fill="#C6C0B8" fill-opacity="0.15"/>
<path d="M127.61 53.0913V58.3833H119.416V66.748H114.124V53.0913H127.61Z" fill="#C6C0B8" fill-opacity="0.15"/>
<path d="M147.242 58.3833H139.047V52.9204H152.534V66.5774H147.242V58.3833Z" fill="#C6C0B8" fill-opacity="0.15"/>
<path d="M139.218 84.3313H147.412V75.9666H152.704V89.6235H139.218V84.3313Z" fill="#C6C0B8" fill-opacity="0.15"/>
<path d="M114.124 75.9666H119.416V84.3313H127.61V89.6235H114.124V75.9666Z" fill="#C6C0B8" fill-opacity="0.15"/>
<path d="M64.2758 119.669H58.9838V106.012H72.47V111.304H64.2758V119.669Z" fill="#C6C0B8" fill-opacity="0.15"/>
<path d="M92.2725 111.474H84.0784V106.182H97.5645V119.839H92.2725V111.474Z" fill="#C6C0B8" fill-opacity="0.15"/>
<path d="M84.0784 137.423H92.2725V129.058H97.5645V142.715H84.0784V137.423Z" fill="#C6C0B8" fill-opacity="0.15"/>
<path d="M58.9838 142.715V129.058H64.2758V137.423H72.47V142.715H58.9838Z" fill="#C6C0B8" fill-opacity="0.15"/>
<path d="M127.61 106.182V111.474H119.416V119.839H114.124V106.182H127.61Z" fill="#C6C0B8" fill-opacity="0.15"/>
<path d="M147.242 111.474H139.047V106.182H152.534V119.839H147.242V111.474Z" fill="#C6C0B8" fill-opacity="0.15"/>
<path d="M139.218 137.423H147.412V129.058H152.704V142.715H139.218V137.423Z" fill="#C6C0B8" fill-opacity="0.15"/>
<path d="M114.124 129.058H119.416V137.423H127.61V142.715H114.124V129.058Z" fill="#C6C0B8" fill-opacity="0.15"/>
<path d="M64.2758 172.76H58.9838V159.103H72.47V164.395H64.2758V172.76Z" fill="#C6C0B8" fill-opacity="0.15"/>
<path d="M92.2725 164.566H84.0784V159.274H97.5645V172.931H92.2725V164.566Z" fill="#C6C0B8" fill-opacity="0.15"/>
<path d="M84.0784 190.343H92.2725V181.978H97.5645V195.635H84.0784V190.343Z" fill="#C6C0B8" fill-opacity="0.15"/>
<path d="M58.9838 195.806V182.149H64.2758V190.514H72.47V195.806H58.9838Z" fill="#C6C0B8" fill-opacity="0.15"/>
<path d="M127.61 159.274V164.566H119.416V172.931H114.124V159.274H127.61Z" fill="#C6C0B8" fill-opacity="0.15"/>
<path d="M147.242 164.566H139.047V159.274H152.534V172.931H147.242V164.566Z" fill="#C6C0B8" fill-opacity="0.15"/>
<path d="M139.218 190.343H147.412V181.978H152.704V195.635H139.218V190.343Z" fill="#C6C0B8" fill-opacity="0.15"/>
<path d="M114.124 182.149H119.416V190.514H127.61V195.806H114.124V182.149Z" fill="#C6C0B8" fill-opacity="0.15"/>
<path d="M169.093 225.851V212.365L182.579 212.194V217.486H174.385V225.851H169.093Z" fill="#C6C0B8" fill-opacity="0.15"/>
<path d="M202.381 217.657H194.187V212.365H207.673V226.022H202.381V217.657Z" fill="#C6C0B8" fill-opacity="0.15"/>
<path d="M194.358 243.435H202.552V235.069H207.844V248.727H194.358V243.435Z" fill="#C6C0B8" fill-opacity="0.15"/>
<path d="M169.093 248.897V235.24H174.385V243.605H182.579V248.897H169.093Z" fill="#C6C0B8" fill-opacity="0.15"/>
<path d="M224.232 225.851V212.365L237.719 212.194V217.486H229.524V225.851H224.232Z" fill="#C6C0B8" fill-opacity="0.15"/>
<path d="M257.521 217.657H249.327V212.365H262.813V226.022H257.521V217.657Z" fill="#C6C0B8" fill-opacity="0.15"/>
<path d="M249.327 243.435H257.521V235.069H262.813V248.727H249.327V243.435Z" fill="#C6C0B8" fill-opacity="0.15"/>
<path d="M229.524 243.435H237.719V248.727H224.232V235.069H229.524V243.435Z" fill="#C6C0B8" fill-opacity="0.15"/>
<path d="M279.372 225.851V212.365L292.858 212.194V217.486H284.664V225.851H279.372Z" fill="#C6C0B8" fill-opacity="0.15"/>
<path d="M304.467 212.365H317.953V226.022H312.661V217.657H304.467V212.365Z" fill="#C6C0B8" fill-opacity="0.15"/>
<path d="M304.467 243.435H312.661V235.069H317.953V248.727H304.467V243.435Z" fill="#C6C0B8" fill-opacity="0.15"/>
<path d="M279.372 248.897V235.24H284.664V243.605H292.858V248.897H279.372Z" fill="#C6C0B8" fill-opacity="0.15"/>
<path d="M347.827 217.657H339.633V225.851H334.341V212.365H347.827V217.657Z" fill="#C6C0B8" fill-opacity="0.15"/>
<path d="M367.63 217.657H359.436V212.365H372.922V226.022H367.63V217.657Z" fill="#C6C0B8" fill-opacity="0.15"/>
<path d="M359.436 243.435H367.63V235.069H372.922V248.727H359.436V243.435Z" fill="#C6C0B8" fill-opacity="0.15"/>
<path d="M334.341 235.24H339.633V243.605H347.827V248.897H334.341V235.24Z" fill="#C6C0B8" fill-opacity="0.15"/>
<path d="M-51.125 225.851V212.365L-37.6388 212.194V217.486H-45.8329V225.851H-51.125Z" fill="#C6C0B8" fill-opacity="0.15"/>
<path d="M-26.0304 212.365H-12.5442V226.022H-17.8363V217.657H-26.0304V212.365Z" fill="#C6C0B8" fill-opacity="0.15"/>
<path d="M-26.0304 243.435H-17.8363V235.069H-12.5442V248.727H-26.0304V243.435Z" fill="#C6C0B8" fill-opacity="0.15"/>
<path d="M-51.125 248.897V235.24H-45.8329V243.605H-37.6388V248.897H-51.125Z" fill="#C6C0B8" fill-opacity="0.15"/>
<path d="M3.84404 225.851V212.365L17.3302 212.194V217.486H9.13609V225.851H3.84404Z" fill="#C6C0B8" fill-opacity="0.15"/>
<path d="M37.1327 217.657H28.9386V212.365H42.4248V226.022H37.1327V217.657Z" fill="#C6C0B8" fill-opacity="0.15"/>
<path d="M29.1093 243.435H37.3035V235.069H42.5955V248.727H29.1093V243.435Z" fill="#C6C0B8" fill-opacity="0.15"/>
<path d="M9.3068 243.435H17.5009V248.727H4.01475V235.069H9.3068V243.435Z" fill="#C6C0B8" fill-opacity="0.15"/>
<path d="M58.9838 225.851V212.365L72.47 212.194V217.486H64.2758V225.851H58.9838Z" fill="#C6C0B8" fill-opacity="0.15"/>
<path d="M92.2725 217.657H84.0784V212.365H97.5645V226.022H92.2725V217.657Z" fill="#C6C0B8" fill-opacity="0.15"/>
<path d="M84.0784 243.435H92.2725V235.069H97.5645V248.727H84.0784V243.435Z" fill="#C6C0B8" fill-opacity="0.15"/>
<path d="M58.9838 248.897V235.24H64.2758V243.605H72.47V248.897H58.9838Z" fill="#C6C0B8" fill-opacity="0.15"/>
<path d="M127.61 212.365V217.486H119.416V225.851H114.124V212.365H127.61Z" fill="#C6C0B8" fill-opacity="0.15"/>
<path d="M147.242 217.657H139.047V212.365H152.534V226.022H147.242V217.657Z" fill="#C6C0B8" fill-opacity="0.15"/>
<path d="M139.218 243.435H147.412V235.069H152.704V248.727H139.218V243.435Z" fill="#C6C0B8" fill-opacity="0.15"/>
<path d="M114.124 235.24H119.416V243.605H127.61V248.897H114.124V235.24Z" fill="#C6C0B8" fill-opacity="0.15"/>
<path d="M665.521 66.748V53.0913H679.007V58.3833H670.813V66.748H665.521Z" fill="#C6C0B8" fill-opacity="0.15"/>
<path d="M698.81 58.3833H690.616V52.9204H704.102V66.5774H698.81V58.3833Z" fill="#C6C0B8" fill-opacity="0.15"/>
<path d="M690.616 84.3313H698.81V75.9666H704.102V89.6235H690.616V84.3313Z" fill="#C6C0B8" fill-opacity="0.15"/>
<path d="M665.521 75.9666H670.813V84.3313H679.007V89.6235H665.521V75.9666Z" fill="#C6C0B8" fill-opacity="0.15"/>
<path d="M670.813 119.669H665.521V106.012H679.007V111.304H670.813V119.669Z" fill="#C6C0B8" fill-opacity="0.15"/>
<path d="M698.81 111.474H690.616V106.182H704.102V119.839H698.81V111.474Z" fill="#C6C0B8" fill-opacity="0.15"/>
<path d="M690.616 137.423H698.81V129.058H704.102V142.715H690.616V137.423Z" fill="#C6C0B8" fill-opacity="0.15"/>
<path d="M665.521 129.058H670.813V137.423H679.007V142.715H665.521V129.058Z" fill="#C6C0B8" fill-opacity="0.15"/>
<path d="M670.813 172.76H665.521V159.103H679.007V164.395H670.813V172.76Z" fill="#C6C0B8" fill-opacity="0.15"/>
<path d="M698.81 164.566H690.616V159.274H704.102V172.931H698.81V164.566Z" fill="#C6C0B8" fill-opacity="0.15"/>
<path d="M690.616 190.343H698.81V181.978H704.102V195.635H690.616V190.343Z" fill="#C6C0B8" fill-opacity="0.15"/>
<path d="M665.521 182.149H670.813V190.514H679.007V195.806H665.521V182.149Z" fill="#C6C0B8" fill-opacity="0.15"/>
<path d="M720.661 66.748V53.0913H734.147V58.3833H725.953V66.748H720.661Z" fill="#C6C0B8" fill-opacity="0.15"/>
<path d="M753.95 58.3833H745.755V52.9204H759.242V66.5774H753.95V58.3833Z" fill="#C6C0B8" fill-opacity="0.15"/>
<path d="M745.755 84.3313H753.95V75.9666H759.242V89.6235H745.755V84.3313Z" fill="#C6C0B8" fill-opacity="0.15"/>
<path d="M734.147 84.3313V89.6235H720.661V75.9666H725.953V84.3313H734.147Z" fill="#C6C0B8" fill-opacity="0.15"/>
<path d="M775.63 66.748V53.0913H789.116V58.3833H780.922V66.748H775.63Z" fill="#C6C0B8" fill-opacity="0.15"/>
<path d="M800.724 58.3833V52.9204H814.211V66.5774H808.919V58.3833H800.724Z" fill="#C6C0B8" fill-opacity="0.15"/>
<path d="M800.724 84.3313H808.919V75.9666H814.211V89.6235H800.724V84.3313Z" fill="#C6C0B8" fill-opacity="0.15"/>
<path d="M789.287 84.3313V89.6235H775.801V75.9666H781.093V84.3313H789.287Z" fill="#C6C0B8" fill-opacity="0.15"/>
<path d="M720.661 119.839V106.182H734.147V111.474H725.953V119.839H720.661Z" fill="#C6C0B8" fill-opacity="0.15"/>
<path d="M753.95 111.474H745.755V106.182H759.242V119.839H753.95V111.474Z" fill="#C6C0B8" fill-opacity="0.15"/>
<path d="M745.755 137.423H753.95V129.058H759.242V142.715H745.755V137.423Z" fill="#C6C0B8" fill-opacity="0.15"/>
<path d="M734.147 142.715H720.661V129.058H725.953V137.423H734.147V142.715Z" fill="#C6C0B8" fill-opacity="0.15"/>
<path d="M775.63 119.839V106.182H789.116V111.474H780.922V119.839H775.63Z" fill="#C6C0B8" fill-opacity="0.15"/>
<path d="M808.919 111.474H800.724V106.182H814.211V119.839H808.919V111.474Z" fill="#C6C0B8" fill-opacity="0.15"/>
<path d="M800.724 137.423H808.919V129.058H814.211V142.715H800.724V137.423Z" fill="#C6C0B8" fill-opacity="0.15"/>
<path d="M789.116 142.715H775.63V129.058H780.922V137.423H789.116V142.715Z" fill="#C6C0B8" fill-opacity="0.15"/>
<path d="M720.661 172.931V159.274H734.147V164.566H725.953V172.931H720.661Z" fill="#C6C0B8" fill-opacity="0.15"/>
<path d="M753.95 164.566H745.755V159.274H759.242V172.931H753.95V164.566Z" fill="#C6C0B8" fill-opacity="0.15"/>
<path d="M745.755 190.343H753.95V181.978H759.242V195.635H745.755V190.343Z" fill="#C6C0B8" fill-opacity="0.15"/>
<path d="M734.147 195.635H720.661V181.978H725.953V190.343H734.147V195.635Z" fill="#C6C0B8" fill-opacity="0.15"/>
<path d="M775.63 172.931V159.274H789.116V164.566H780.922V172.931H775.63Z" fill="#C6C0B8" fill-opacity="0.15"/>
<path d="M808.919 164.566H800.724V159.274H814.211V172.931H808.919V164.566Z" fill="#C6C0B8" fill-opacity="0.15"/>
<path d="M800.724 190.343H808.919V181.978H814.211V195.635H800.724V190.343Z" fill="#C6C0B8" fill-opacity="0.15"/>
<path d="M789.116 195.635H775.63V181.978H780.922V190.343H789.116V195.635Z" fill="#C6C0B8" fill-opacity="0.15"/>
<path d="M390.164 66.748V53.0913H403.65V58.3833H395.456V66.748H390.164Z" fill="#C6C0B8" fill-opacity="0.15"/>
<path d="M415.258 53.0913H428.744V66.5774H423.452V58.3833H415.258V53.0913Z" fill="#C6C0B8" fill-opacity="0.15"/>
<path d="M428.744 75.9666V89.6235H415.258V84.3313H423.452V75.9666H428.744Z" fill="#C6C0B8" fill-opacity="0.15"/>
<path d="M395.456 84.3313H403.65V89.6235H390.164V75.9666H395.456V84.3313Z" fill="#C6C0B8" fill-opacity="0.15"/>
<path d="M395.456 119.669H390.164V106.012H403.65V111.304H395.456V119.669Z" fill="#C6C0B8" fill-opacity="0.15"/>
<path d="M423.452 111.474H415.258V106.182H428.744V119.839H423.452V111.474Z" fill="#C6C0B8" fill-opacity="0.15"/>
<path d="M428.744 142.715H415.258V137.423H423.452V129.058H428.744V142.715Z" fill="#C6C0B8" fill-opacity="0.15"/>
<path d="M395.456 137.423H403.65V142.715H390.164V129.058H395.456V137.423Z" fill="#C6C0B8" fill-opacity="0.15"/>
<path d="M395.456 172.76H390.164V159.103H403.65V164.395H395.456V172.76Z" fill="#C6C0B8" fill-opacity="0.15"/>
<path d="M423.452 164.566H415.258V159.274H428.744V172.931H423.452V164.566Z" fill="#C6C0B8" fill-opacity="0.15"/>
<path d="M428.744 195.635H415.258V190.343H423.452V181.978H428.744V195.635Z" fill="#C6C0B8" fill-opacity="0.15"/>
<path d="M395.456 190.343H403.65V195.635H390.164V181.978H395.456V190.343Z" fill="#C6C0B8" fill-opacity="0.15"/>
<path d="M450.596 172.76H445.303V159.103H458.79V164.395H450.596V172.76Z" fill="#C6C0B8" fill-opacity="0.15"/>
<path d="M470.227 164.566V159.274H483.714V172.931H478.422V164.566H470.227Z" fill="#C6C0B8" fill-opacity="0.15"/>
<path d="M470.398 190.343H478.592V181.978H483.884V195.635H470.398V190.343Z" fill="#C6C0B8" fill-opacity="0.15"/>
<path d="M450.596 190.343H458.79V195.635H445.303V181.978H450.596V190.343Z" fill="#C6C0B8" fill-opacity="0.15"/>
<path d="M513.759 111.474H505.565V119.839H500.273V106.182H513.759V111.474Z" fill="#C6C0B8" fill-opacity="0.15"/>
<path d="M525.367 111.474V106.182H538.853V119.839H533.561V111.474H525.367Z" fill="#C6C0B8" fill-opacity="0.15"/>
<path d="M525.538 137.423H533.732V129.058H539.024V142.715H525.538V137.423Z" fill="#C6C0B8" fill-opacity="0.15"/>
<path d="M500.273 129.058H505.565V137.423H513.759V142.715H500.273V129.058Z" fill="#C6C0B8" fill-opacity="0.15"/>
<path d="M560.704 119.669H555.412V106.012H568.898V111.304H560.704V119.669Z" fill="#C6C0B8" fill-opacity="0.15"/>
<path d="M580.507 111.474V106.182H593.993V119.839H588.701V111.474H580.507Z" fill="#C6C0B8" fill-opacity="0.15"/>
<path d="M580.507 137.423H588.701V129.058H593.993V142.715H580.507V137.423Z" fill="#C6C0B8" fill-opacity="0.15"/>
<path d="M555.412 142.715V129.058H560.704V137.423H568.898V142.715H555.412Z" fill="#C6C0B8" fill-opacity="0.15"/>
<path d="M513.929 159.274V164.566H505.565V172.931H500.273V159.274H513.929Z" fill="#C6C0B8" fill-opacity="0.15"/>
<path d="M525.367 164.566V159.274H538.853V172.931H533.561V164.566H525.367Z" fill="#C6C0B8" fill-opacity="0.15"/>
<path d="M525.538 190.343H533.732V181.978H539.024V195.635H525.538V190.343Z" fill="#C6C0B8" fill-opacity="0.15"/>
<path d="M500.273 182.149H505.565V190.514H513.759V195.806H500.273V182.149Z" fill="#C6C0B8" fill-opacity="0.15"/>
<path d="M560.704 172.76H555.412V159.103H568.898V164.395H560.704V172.76Z" fill="#C6C0B8" fill-opacity="0.15"/>
<path d="M580.507 164.566V159.274H593.993V172.931H588.701V164.566H580.507Z" fill="#C6C0B8" fill-opacity="0.15"/>
<path d="M580.507 190.343H588.701V181.978H593.993V195.635H580.507V190.343Z" fill="#C6C0B8" fill-opacity="0.15"/>
<path d="M555.412 195.806V182.149H560.704V190.514H568.898V195.806H555.412Z" fill="#C6C0B8" fill-opacity="0.15"/>
<path d="M678.154 217.657H669.96V225.851H664.667V212.365H678.154V217.657Z" fill="#C6C0B8" fill-opacity="0.15"/>
<path d="M703.248 225.851H697.956V217.486H689.762V212.194H703.248V225.851Z" fill="#C6C0B8" fill-opacity="0.15"/>
<path d="M697.956 235.24H703.248V248.897H689.762V243.605H697.956V235.24Z" fill="#C6C0B8" fill-opacity="0.15"/>
<path d="M664.667 248.897V235.24H669.96V243.605H678.154V248.897H664.667Z" fill="#C6C0B8" fill-opacity="0.15"/>
<path d="M733.293 217.657H725.099V225.851H719.807V212.365H733.293V217.657Z" fill="#C6C0B8" fill-opacity="0.15"/>
<path d="M758.388 225.851H753.096V217.486H744.902V212.194H758.388V225.851Z" fill="#C6C0B8" fill-opacity="0.15"/>
<path d="M758.388 235.069V248.727H744.902V243.435H753.096V235.069H758.388Z" fill="#C6C0B8" fill-opacity="0.15"/>
<path d="M725.099 243.435H733.293V248.727H719.807V235.069H725.099V243.435Z" fill="#C6C0B8" fill-opacity="0.15"/>
<path d="M775.63 225.851V212.365L789.116 212.194V217.486H780.922V225.851H775.63Z" fill="#C6C0B8" fill-opacity="0.15"/>
<path d="M808.919 217.657H800.724V212.365H814.211V226.022H808.919V217.657Z" fill="#C6C0B8" fill-opacity="0.15"/>
<path d="M800.724 243.435H808.919V235.069H814.211V248.727H800.724V243.435Z" fill="#C6C0B8" fill-opacity="0.15"/>
<path d="M789.287 243.435V248.727H775.801V235.069H781.093V243.435H789.287Z" fill="#C6C0B8" fill-opacity="0.15"/>
<path d="M390.164 225.851V212.365L403.65 212.194V217.486H395.456V225.851H390.164Z" fill="#C6C0B8" fill-opacity="0.15"/>
<path d="M415.258 212.365H428.744V226.022H423.452V217.657H415.258V212.365Z" fill="#C6C0B8" fill-opacity="0.15"/>
<path d="M415.258 243.435H423.452V235.069H428.744V248.727H415.258V243.435Z" fill="#C6C0B8" fill-opacity="0.15"/>
<path d="M395.456 243.435H403.65V248.727H390.164V235.069H395.456V243.435Z" fill="#C6C0B8" fill-opacity="0.15"/>
<path d="M445.303 225.851V212.365L458.79 212.194V217.486H450.596V225.851H445.303Z" fill="#C6C0B8" fill-opacity="0.15"/>
<path d="M470.227 217.657V212.365H483.714V226.022H478.422V217.657H470.227Z" fill="#C6C0B8" fill-opacity="0.15"/>
<path d="M470.398 243.435H478.592V235.069H483.884V248.727H470.398V243.435Z" fill="#C6C0B8" fill-opacity="0.15"/>
<path d="M450.596 243.435H458.79V248.727H445.303V235.069H450.596V243.435Z" fill="#C6C0B8" fill-opacity="0.15"/>
<path d="M513.929 212.365V217.486H505.565V225.851H500.273V212.365H513.929Z" fill="#C6C0B8" fill-opacity="0.15"/>
<path d="M538.17 225.851H532.878V217.486H524.684V212.194H538.17V225.851Z" fill="#C6C0B8" fill-opacity="0.15"/>
<path d="M532.878 235.24H538.17V248.897H524.684V243.605H532.878V235.24Z" fill="#C6C0B8" fill-opacity="0.15"/>
<path d="M500.273 235.24H505.565V243.605H513.759V248.897H500.273V235.24Z" fill="#C6C0B8" fill-opacity="0.15"/>
<path d="M568.045 217.657H559.851V225.851H554.559V212.365H568.045V217.657Z" fill="#C6C0B8" fill-opacity="0.15"/>
<path d="M593.139 225.851H587.847V217.486H579.653V212.194H593.139V225.851Z" fill="#C6C0B8" fill-opacity="0.15"/>
<path d="M587.847 235.24H593.139V248.897H579.653V243.605H587.847V235.24Z" fill="#C6C0B8" fill-opacity="0.15"/>
<path d="M554.559 248.897V235.24H559.851V243.605H568.045V248.897H554.559Z" fill="#C6C0B8" fill-opacity="0.15"/>
<path d="M1062.58 0H1049.09V13.657H1054.38V5.29199H1062.58V0Z" fill="#C6C0B8" fill-opacity="0.15"/>
<path d="M1082.38 5.29199H1074.19V0H1087.67V13.657H1082.38V5.29199Z" fill="#C6C0B8" fill-opacity="0.15"/>
<path d="M1074.36 31.2402H1082.55V22.8752H1087.84V36.5322H1074.36V31.2402Z" fill="#C6C0B8" fill-opacity="0.15"/>
<path d="M1049.09 36.5322V22.8752H1054.38V31.2402H1062.58V36.5322H1049.09Z" fill="#C6C0B8" fill-opacity="0.15"/>
<path d="M1049.09 66.748V53.0913H1062.58V58.3833H1054.38V66.748H1049.09Z" fill="#C6C0B8" fill-opacity="0.15"/>
<path d="M1082.38 58.3833H1074.19V52.9204H1087.67V66.5774H1082.38V58.3833Z" fill="#C6C0B8" fill-opacity="0.15"/>
<path d="M1074.36 84.3313H1082.55V75.9666H1087.84V89.6235H1074.36V84.3313Z" fill="#C6C0B8" fill-opacity="0.15"/>
<path d="M1049.09 89.6235V75.9666H1054.38V84.3313H1062.58V89.6235H1049.09Z" fill="#C6C0B8" fill-opacity="0.15"/>
<path d="M1049.09 119.839V106.182H1062.58V111.474H1054.38V119.839H1049.09Z" fill="#C6C0B8" fill-opacity="0.15"/>
<path d="M1082.38 111.474H1074.19V106.182H1087.67V119.839H1082.38V111.474Z" fill="#C6C0B8" fill-opacity="0.15"/>
<path d="M1074.36 137.423H1082.55V129.058H1087.84V142.715H1074.36V137.423Z" fill="#C6C0B8" fill-opacity="0.15"/>
<path d="M1049.09 142.715V129.058H1054.38V137.423H1062.58V142.715H1049.09Z" fill="#C6C0B8" fill-opacity="0.15"/>
<path d="M1049.09 172.931V159.274H1062.58V164.566H1054.38V172.931H1049.09Z" fill="#C6C0B8" fill-opacity="0.15"/>
<path d="M1082.38 164.566H1074.19V159.274H1087.67V172.931H1082.38V164.566Z" fill="#C6C0B8" fill-opacity="0.15"/>
<path d="M1074.36 190.343H1082.55V181.978H1087.84V195.635H1074.36V190.343Z" fill="#C6C0B8" fill-opacity="0.15"/>
<path d="M1049.09 195.806V182.149H1054.38V190.514H1062.58V195.806H1049.09Z" fill="#C6C0B8" fill-opacity="0.15"/>
<path d="M1227.83 58.3833H1219.63V66.748H1214.34V53.0913H1227.83V58.3833Z" fill="#C6C0B8" fill-opacity="0.15"/>
<path d="M1247.63 58.3833H1239.44V52.9204H1252.92V66.5774H1247.63V58.3833Z" fill="#C6C0B8" fill-opacity="0.15"/>
<path d="M1239.44 84.3313H1247.63V75.9666H1252.92V89.6235H1239.44V84.3313Z" fill="#C6C0B8" fill-opacity="0.15"/>
<path d="M1214.34 75.9666H1219.63V84.3313H1227.83V89.6235H1214.34V75.9666Z" fill="#C6C0B8" fill-opacity="0.15"/>
<path d="M1164.66 119.669H1159.37V106.012H1172.86V111.304H1164.66V119.669Z" fill="#C6C0B8" fill-opacity="0.15"/>
<path d="M1197.95 119.669H1192.66V111.304H1184.47V106.012H1197.95V119.669Z" fill="#C6C0B8" fill-opacity="0.15"/>
<path d="M1197.95 129.058V142.715H1184.47V137.423H1192.66V129.058H1197.95Z" fill="#C6C0B8" fill-opacity="0.15"/>
<path d="M1159.37 142.715V129.058H1164.66V137.423H1172.86V142.715H1159.37Z" fill="#C6C0B8" fill-opacity="0.15"/>
<path d="M1227.83 111.474H1219.63V119.839H1214.34V106.182H1227.83V111.474Z" fill="#C6C0B8" fill-opacity="0.15"/>
<path d="M1247.63 111.474H1239.44V106.182H1252.92V119.839H1247.63V111.474Z" fill="#C6C0B8" fill-opacity="0.15"/>
<path d="M1239.44 137.423H1247.63V129.058H1252.92V142.715H1239.44V137.423Z" fill="#C6C0B8" fill-opacity="0.15"/>
<path d="M1214.34 129.058H1219.63V137.423H1227.83V142.715H1214.34V129.058Z" fill="#C6C0B8" fill-opacity="0.15"/>
<path d="M1164.66 172.76H1159.37V159.103H1172.86V164.395H1164.66V172.76Z" fill="#C6C0B8" fill-opacity="0.15"/>
<path d="M1197.95 159.103V172.76H1192.66V164.395H1184.47V159.103H1197.95Z" fill="#C6C0B8" fill-opacity="0.15"/>
<path d="M1197.95 181.978V195.635H1184.47V190.343H1192.66V181.978H1197.95Z" fill="#C6C0B8" fill-opacity="0.15"/>
<path d="M1159.37 195.806V182.149H1164.66V190.514H1172.86V195.806H1159.37Z" fill="#C6C0B8" fill-opacity="0.15"/>
<path d="M1227.83 164.566H1219.63V172.931H1214.34V159.274H1227.83V164.566Z" fill="#C6C0B8" fill-opacity="0.15"/>
<path d="M1247.63 164.566H1239.44V159.274H1252.92V172.931H1247.63V164.566Z" fill="#C6C0B8" fill-opacity="0.15"/>
<path d="M1239.44 190.343H1247.63V181.978H1252.92V195.635H1239.44V190.343Z" fill="#C6C0B8" fill-opacity="0.15"/>
<path d="M1214.34 182.149H1219.63V190.514H1227.83V195.806H1214.34V182.149Z" fill="#C6C0B8" fill-opacity="0.15"/>
<path d="M828.875 66.748V53.0913H842.361V58.3833H834.167V66.748H828.875Z" fill="#C6C0B8" fill-opacity="0.15"/>
<path d="M853.97 53.0913H867.456V66.5774H862.164V58.3833H853.97V53.0913Z" fill="#C6C0B8" fill-opacity="0.15"/>
<path d="M867.456 75.9666V89.6235H853.97V84.3313H862.164V75.9666H867.456Z" fill="#C6C0B8" fill-opacity="0.15"/>
<path d="M828.875 89.6235V75.9666H834.167V84.3313H842.361V89.6235H828.875Z" fill="#C6C0B8" fill-opacity="0.15"/>
<path d="M883.844 66.748V53.0913H897.33V58.3833H889.136V66.748H883.844Z" fill="#C6C0B8" fill-opacity="0.15"/>
<path d="M917.133 58.3833H908.939V52.9204H922.425V66.5774H917.133V58.3833Z" fill="#C6C0B8" fill-opacity="0.15"/>
<path d="M909.109 84.3313H917.303V75.9666H922.596V89.6235H909.109V84.3313Z" fill="#C6C0B8" fill-opacity="0.15"/>
<path d="M889.307 84.3313H897.501V89.6235H884.015V75.9666H889.307V84.3313Z" fill="#C6C0B8" fill-opacity="0.15"/>
<path d="M834.167 119.669H828.875V106.012H842.361V111.304H834.167V119.669Z" fill="#C6C0B8" fill-opacity="0.15"/>
<path d="M867.456 106.012V119.669H862.164V111.304H853.97V106.012H867.456Z" fill="#C6C0B8" fill-opacity="0.15"/>
<path d="M867.456 129.058V142.715H853.97V137.423H862.164V129.058H867.456Z" fill="#C6C0B8" fill-opacity="0.15"/>
<path d="M828.875 142.715V129.058H834.167V137.423H842.361V142.715H828.875Z" fill="#C6C0B8" fill-opacity="0.15"/>
<path d="M889.136 119.669H883.844V106.012H897.33V111.304H889.136V119.669Z" fill="#C6C0B8" fill-opacity="0.15"/>
<path d="M917.133 111.474H908.939V106.182H922.425V119.839H917.133V111.474Z" fill="#C6C0B8" fill-opacity="0.15"/>
<path d="M909.109 137.423H917.303V129.058H922.596V142.715H909.109V137.423Z" fill="#C6C0B8" fill-opacity="0.15"/>
<path d="M889.307 137.423H897.501V142.715H884.015V129.058H889.307V137.423Z" fill="#C6C0B8" fill-opacity="0.15"/>
<path d="M834.167 172.76H828.875V159.103H842.361V164.395H834.167V172.76Z" fill="#C6C0B8" fill-opacity="0.15"/>
<path d="M867.456 159.103V172.76H862.164V164.395H853.97V159.103H867.456Z" fill="#C6C0B8" fill-opacity="0.15"/>
<path d="M867.456 181.978V195.635H853.97V190.343H862.164V181.978H867.456Z" fill="#C6C0B8" fill-opacity="0.15"/>
<path d="M828.875 195.806V182.149H834.167V190.514H842.361V195.806H828.875Z" fill="#C6C0B8" fill-opacity="0.15"/>
<path d="M889.136 172.76H883.844V159.103H897.33V164.395H889.136V172.76Z" fill="#C6C0B8" fill-opacity="0.15"/>
<path d="M917.133 164.566H908.939V159.274H922.425V172.931H917.133V164.566Z" fill="#C6C0B8" fill-opacity="0.15"/>
<path d="M909.109 190.343H917.303V181.978H922.596V195.635H909.109V190.343Z" fill="#C6C0B8" fill-opacity="0.15"/>
<path d="M889.307 190.343H897.501V195.635H884.015V181.978H889.307V190.343Z" fill="#C6C0B8" fill-opacity="0.15"/>
<path d="M1007.61 5.29199H999.416V13.657H994.124V0H1007.61V5.29199Z" fill="#C6C0B8" fill-opacity="0.15"/>
<path d="M1027.24 5.29199H1019.05V0H1032.53V13.657H1027.24V5.29199Z" fill="#C6C0B8" fill-opacity="0.15"/>
<path d="M1019.22 31.2402H1027.41V22.8752H1032.7V36.5322H1019.22V31.2402Z" fill="#C6C0B8" fill-opacity="0.15"/>
<path d="M994.124 22.8752H999.416V31.2402H1007.61V36.5322H994.124V22.8752Z" fill="#C6C0B8" fill-opacity="0.15"/>
<path d="M1007.61 53.0913V58.3833H999.416V66.748H994.124V53.0913H1007.61Z" fill="#C6C0B8" fill-opacity="0.15"/>
<path d="M1027.24 58.3833H1019.05V52.9204H1032.53V66.5774H1027.24V58.3833Z" fill="#C6C0B8" fill-opacity="0.15"/>
<path d="M1019.22 84.3313H1027.41V75.9666H1032.7V89.6235H1019.22V84.3313Z" fill="#C6C0B8" fill-opacity="0.15"/>
<path d="M994.124 75.9666H999.416V84.3313H1007.61V89.6235H994.124V75.9666Z" fill="#C6C0B8" fill-opacity="0.15"/>
<path d="M944.276 119.669H938.984V106.012H952.47V111.304H944.276V119.669Z" fill="#C6C0B8" fill-opacity="0.15"/>
<path d="M972.272 111.474H964.078V106.182H977.565V119.839H972.272V111.474Z" fill="#C6C0B8" fill-opacity="0.15"/>
<path d="M964.078 137.423H972.272V129.058H977.565V142.715H964.078V137.423Z" fill="#C6C0B8" fill-opacity="0.15"/>
<path d="M938.984 142.715V129.058H944.276V137.423H952.47V142.715H938.984Z" fill="#C6C0B8" fill-opacity="0.15"/>
<path d="M1007.61 106.182V111.474H999.416V119.839H994.124V106.182H1007.61Z" fill="#C6C0B8" fill-opacity="0.15"/>
<path d="M1027.24 111.474H1019.05V106.182H1032.53V119.839H1027.24V111.474Z" fill="#C6C0B8" fill-opacity="0.15"/>
<path d="M1019.22 137.423H1027.41V129.058H1032.7V142.715H1019.22V137.423Z" fill="#C6C0B8" fill-opacity="0.15"/>
<path d="M994.124 129.058H999.416V137.423H1007.61V142.715H994.124V129.058Z" fill="#C6C0B8" fill-opacity="0.15"/>
<path d="M944.276 172.76H938.984V159.103H952.47V164.395H944.276V172.76Z" fill="#C6C0B8" fill-opacity="0.15"/>
<path d="M972.272 164.566H964.078V159.274H977.565V172.931H972.272V164.566Z" fill="#C6C0B8" fill-opacity="0.15"/>
<path d="M964.078 190.343H972.272V181.978H977.565V195.635H964.078V190.343Z" fill="#C6C0B8" fill-opacity="0.15"/>
<path d="M938.984 195.806V182.149H944.276V190.514H952.47V195.806H938.984Z" fill="#C6C0B8" fill-opacity="0.15"/>
<path d="M1007.61 159.274V164.566H999.416V172.931H994.124V159.274H1007.61Z" fill="#C6C0B8" fill-opacity="0.15"/>
<path d="M1027.24 164.566H1019.05V159.274H1032.53V172.931H1027.24V164.566Z" fill="#C6C0B8" fill-opacity="0.15"/>
<path d="M1019.22 190.343H1027.41V181.978H1032.7V195.635H1019.22V190.343Z" fill="#C6C0B8" fill-opacity="0.15"/>
<path d="M994.124 182.149H999.416V190.514H1007.61V195.806H994.124V182.149Z" fill="#C6C0B8" fill-opacity="0.15"/>
<path d="M1049.09 225.851V212.365L1062.58 212.194V217.486H1054.38V225.851H1049.09Z" fill="#C6C0B8" fill-opacity="0.15"/>
<path d="M1082.38 217.657H1074.19V212.365H1087.67V226.022H1082.38V217.657Z" fill="#C6C0B8" fill-opacity="0.15"/>
<path d="M1074.36 243.435H1082.55V235.069H1087.84V248.727H1074.36V243.435Z" fill="#C6C0B8" fill-opacity="0.15"/>
<path d="M1049.09 248.897V235.24H1054.38V243.605H1062.58V248.897H1049.09Z" fill="#C6C0B8" fill-opacity="0.15"/>
<path d="M1104.23 225.851V212.365L1117.72 212.194V217.486H1109.52V225.851H1104.23Z" fill="#C6C0B8" fill-opacity="0.15"/>
<path d="M1137.52 217.657H1129.33V212.365H1142.81V226.022H1137.52V217.657Z" fill="#C6C0B8" fill-opacity="0.15"/>
<path d="M1129.33 243.435H1137.52V235.069H1142.81V248.727H1129.33V243.435Z" fill="#C6C0B8" fill-opacity="0.15"/>
<path d="M1109.52 243.435H1117.72V248.727H1104.23V235.069H1109.52V243.435Z" fill="#C6C0B8" fill-opacity="0.15"/>
<path d="M1159.37 225.851V212.365L1172.86 212.194V217.486H1164.66V225.851H1159.37Z" fill="#C6C0B8" fill-opacity="0.15"/>
<path d="M1184.47 212.365H1197.95V226.022H1192.66V217.657H1184.47V212.365Z" fill="#C6C0B8" fill-opacity="0.15"/>
<path d="M1184.47 243.435H1192.66V235.069H1197.95V248.727H1184.47V243.435Z" fill="#C6C0B8" fill-opacity="0.15"/>
<path d="M1159.37 248.897V235.24H1164.66V243.605H1172.86V248.897H1159.37Z" fill="#C6C0B8" fill-opacity="0.15"/>
<path d="M1227.83 217.657H1219.63V225.851H1214.34V212.365H1227.83V217.657Z" fill="#C6C0B8" fill-opacity="0.15"/>
<path d="M1247.63 217.657H1239.44V212.365H1252.92V226.022H1247.63V217.657Z" fill="#C6C0B8" fill-opacity="0.15"/>
<path d="M1239.44 243.435H1247.63V235.069H1252.92V248.727H1239.44V243.435Z" fill="#C6C0B8" fill-opacity="0.15"/>
<path d="M1214.34 235.24H1219.63V243.605H1227.83V248.897H1214.34V235.24Z" fill="#C6C0B8" fill-opacity="0.15"/>
<path d="M828.875 225.851V212.365L842.361 212.194V217.486H834.167V225.851H828.875Z" fill="#C6C0B8" fill-opacity="0.15"/>
<path d="M853.97 212.365H867.456V226.022H862.164V217.657H853.97V212.365Z" fill="#C6C0B8" fill-opacity="0.15"/>
<path d="M853.97 243.435H862.164V235.069H867.456V248.727H853.97V243.435Z" fill="#C6C0B8" fill-opacity="0.15"/>
<path d="M828.875 248.897V235.24H834.167V243.605H842.361V248.897H828.875Z" fill="#C6C0B8" fill-opacity="0.15"/>
<path d="M883.844 225.851V212.365L897.33 212.194V217.486H889.136V225.851H883.844Z" fill="#C6C0B8" fill-opacity="0.15"/>
<path d="M917.133 217.657H908.939V212.365H922.425V226.022H917.133V217.657Z" fill="#C6C0B8" fill-opacity="0.15"/>
<path d="M909.109 243.435H917.303V235.069H922.596V248.727H909.109V243.435Z" fill="#C6C0B8" fill-opacity="0.15"/>
<path d="M889.307 243.435H897.501V248.727H884.015V235.069H889.307V243.435Z" fill="#C6C0B8" fill-opacity="0.15"/>
<path d="M938.984 225.851V212.365L952.47 212.194V217.486H944.276V225.851H938.984Z" fill="#C6C0B8" fill-opacity="0.15"/>
<path d="M972.272 217.657H964.078V212.365H977.565V226.022H972.272V217.657Z" fill="#C6C0B8" fill-opacity="0.15"/>
<path d="M964.078 243.435H972.272V235.069H977.565V248.727H964.078V243.435Z" fill="#C6C0B8" fill-opacity="0.15"/>
<path d="M938.984 248.897V235.24H944.276V243.605H952.47V248.897H938.984Z" fill="#C6C0B8" fill-opacity="0.15"/>
<path d="M1007.61 212.365V217.486H999.416V225.851H994.124V212.365H1007.61Z" fill="#C6C0B8" fill-opacity="0.15"/>
<path d="M1027.24 217.657H1019.05V212.365H1032.53V226.022H1027.24V217.657Z" fill="#C6C0B8" fill-opacity="0.15"/>
<path d="M1019.22 243.435H1027.41V235.069H1032.7V248.727H1019.22V243.435Z" fill="#C6C0B8" fill-opacity="0.15"/>
<path d="M994.124 235.24H999.416V243.605H1007.61V248.897H994.124V235.24Z" fill="#C6C0B8" fill-opacity="0.15"/>
<path d="M1545.52 66.748V53.0913H1559.01V58.3833H1550.81V66.748H1545.52Z" fill="#C6C0B8" fill-opacity="0.15"/>
<path d="M1578.81 58.3833H1570.62V52.9204H1584.1V66.5774H1578.81V58.3833Z" fill="#C6C0B8" fill-opacity="0.15"/>
<path d="M1570.62 84.3313H1578.81V75.9666H1584.1V89.6235H1570.62V84.3313Z" fill="#C6C0B8" fill-opacity="0.15"/>
<path d="M1545.52 75.9666H1550.81V84.3313H1559.01V89.6235H1545.52V75.9666Z" fill="#C6C0B8" fill-opacity="0.15"/>
<path d="M1550.81 119.669H1545.52V106.012H1559.01V111.304H1550.81V119.669Z" fill="#C6C0B8" fill-opacity="0.15"/>
<path d="M1578.81 111.474H1570.62V106.182H1584.1V119.839H1578.81V111.474Z" fill="#C6C0B8" fill-opacity="0.15"/>
<path d="M1570.62 137.423H1578.81V129.058H1584.1V142.715H1570.62V137.423Z" fill="#C6C0B8" fill-opacity="0.15"/>
<path d="M1545.52 129.058H1550.81V137.423H1559.01V142.715H1545.52V129.058Z" fill="#C6C0B8" fill-opacity="0.15"/>
<path d="M1550.81 172.76H1545.52V159.103H1559.01V164.395H1550.81V172.76Z" fill="#C6C0B8" fill-opacity="0.15"/>
<path d="M1578.81 164.566H1570.62V159.274H1584.1V172.931H1578.81V164.566Z" fill="#C6C0B8" fill-opacity="0.15"/>
<path d="M1570.62 190.343H1578.81V181.978H1584.1V195.635H1570.62V190.343Z" fill="#C6C0B8" fill-opacity="0.15"/>
<path d="M1545.52 182.149H1550.81V190.514H1559.01V195.806H1545.52V182.149Z" fill="#C6C0B8" fill-opacity="0.15"/>
<path d="M1600.66 66.748V53.0913H1614.15V58.3833H1605.95V66.748H1600.66Z" fill="#C6C0B8" fill-opacity="0.15"/>
<path d="M1633.95 58.3833H1625.76V52.9204H1639.24V66.5774H1633.95V58.3833Z" fill="#C6C0B8" fill-opacity="0.15"/>
<path d="M1625.76 84.3313H1633.95V75.9666H1639.24V89.6235H1625.76V84.3313Z" fill="#C6C0B8" fill-opacity="0.15"/>
<path d="M1614.15 84.3313V89.6235H1600.66V75.9666H1605.95V84.3313H1614.15Z" fill="#C6C0B8" fill-opacity="0.15"/>
<path d="M1655.63 66.748V53.0913H1669.12V58.3833H1660.92V66.748H1655.63Z" fill="#C6C0B8" fill-opacity="0.15"/>
<path d="M1680.72 58.3833V52.9204H1694.21V66.5774H1688.92V58.3833H1680.72Z" fill="#C6C0B8" fill-opacity="0.15"/>
<path d="M1680.72 84.3313H1688.92V75.9666H1694.21V89.6235H1680.72V84.3313Z" fill="#C6C0B8" fill-opacity="0.15"/>
<path d="M1669.29 84.3313V89.6235H1655.8V75.9666H1661.09V84.3313H1669.29Z" fill="#C6C0B8" fill-opacity="0.15"/>
<path d="M1600.66 119.839V106.182H1614.15V111.474H1605.95V119.839H1600.66Z" fill="#C6C0B8" fill-opacity="0.15"/>
<path d="M1633.95 111.474H1625.76V106.182H1639.24V119.839H1633.95V111.474Z" fill="#C6C0B8" fill-opacity="0.15"/>
<path d="M1625.76 137.423H1633.95V129.058H1639.24V142.715H1625.76V137.423Z" fill="#C6C0B8" fill-opacity="0.15"/>
<path d="M1614.15 142.715H1600.66V129.058H1605.95V137.423H1614.15V142.715Z" fill="#C6C0B8" fill-opacity="0.15"/>
<path d="M1655.63 119.839V106.182H1669.12V111.474H1660.92V119.839H1655.63Z" fill="#C6C0B8" fill-opacity="0.15"/>
<path d="M1688.92 111.474H1680.72V106.182H1694.21V119.839H1688.92V111.474Z" fill="#C6C0B8" fill-opacity="0.15"/>
<path d="M1680.72 137.423H1688.92V129.058H1694.21V142.715H1680.72V137.423Z" fill="#C6C0B8" fill-opacity="0.15"/>
<path d="M1669.12 142.715H1655.63V129.058H1660.92V137.423H1669.12V142.715Z" fill="#C6C0B8" fill-opacity="0.15"/>
<path d="M1600.66 172.931V159.274H1614.15V164.566H1605.95V172.931H1600.66Z" fill="#C6C0B8" fill-opacity="0.15"/>
<path d="M1633.95 164.566H1625.76V159.274H1639.24V172.931H1633.95V164.566Z" fill="#C6C0B8" fill-opacity="0.15"/>
<path d="M1625.76 190.343H1633.95V181.978H1639.24V195.635H1625.76V190.343Z" fill="#C6C0B8" fill-opacity="0.15"/>
<path d="M1614.15 195.635H1600.66V181.978H1605.95V190.343H1614.15V195.635Z" fill="#C6C0B8" fill-opacity="0.15"/>
<path d="M1655.63 172.931V159.274H1669.12V164.566H1660.92V172.931H1655.63Z" fill="#C6C0B8" fill-opacity="0.15"/>
<path d="M1688.92 164.566H1680.72V159.274H1694.21V172.931H1688.92V164.566Z" fill="#C6C0B8" fill-opacity="0.15"/>
<path d="M1680.72 190.343H1688.92V181.978H1694.21V195.635H1680.72V190.343Z" fill="#C6C0B8" fill-opacity="0.15"/>
<path d="M1669.12 195.635H1655.63V181.978H1660.92V190.343H1669.12V195.635Z" fill="#C6C0B8" fill-opacity="0.15"/>
<path d="M1270.16 66.748V53.0913H1283.65V58.3833H1275.46V66.748H1270.16Z" fill="#C6C0B8" fill-opacity="0.15"/>
<path d="M1295.26 53.0913H1308.74V66.5774H1303.45V58.3833H1295.26V53.0913Z" fill="#C6C0B8" fill-opacity="0.15"/>
<path d="M1308.74 75.9666V89.6235H1295.26V84.3313H1303.45V75.9666H1308.74Z" fill="#C6C0B8" fill-opacity="0.15"/>
<path d="M1275.46 84.3313H1283.65V89.6235H1270.16V75.9666H1275.46V84.3313Z" fill="#C6C0B8" fill-opacity="0.15"/>
<path d="M1275.46 119.669H1270.16V106.012H1283.65V111.304H1275.46V119.669Z" fill="#C6C0B8" fill-opacity="0.15"/>
<path d="M1303.45 111.474H1295.26V106.182H1308.74V119.839H1303.45V111.474Z" fill="#C6C0B8" fill-opacity="0.15"/>
<path d="M1308.74 142.715H1295.26V137.423H1303.45V129.058H1308.74V142.715Z" fill="#C6C0B8" fill-opacity="0.15"/>
<path d="M1275.46 137.423H1283.65V142.715H1270.16V129.058H1275.46V137.423Z" fill="#C6C0B8" fill-opacity="0.15"/>
<path d="M1275.46 172.76H1270.16V159.103H1283.65V164.395H1275.46V172.76Z" fill="#C6C0B8" fill-opacity="0.15"/>
<path d="M1303.45 164.566H1295.26V159.274H1308.74V172.931H1303.45V164.566Z" fill="#C6C0B8" fill-opacity="0.15"/>
<path d="M1308.74 195.635H1295.26V190.343H1303.45V181.978H1308.74V195.635Z" fill="#C6C0B8" fill-opacity="0.15"/>
<path d="M1275.46 190.343H1283.65V195.635H1270.16V181.978H1275.46V190.343Z" fill="#C6C0B8" fill-opacity="0.15"/>
<path d="M1330.6 172.76H1325.3V159.103H1338.79V164.395H1330.6V172.76Z" fill="#C6C0B8" fill-opacity="0.15"/>
<path d="M1350.23 164.566V159.274H1363.71V172.931H1358.42V164.566H1350.23Z" fill="#C6C0B8" fill-opacity="0.15"/>
<path d="M1350.4 190.343H1358.59V181.978H1363.88V195.635H1350.4V190.343Z" fill="#C6C0B8" fill-opacity="0.15"/>
<path d="M1330.6 190.343H1338.79V195.635H1325.3V181.978H1330.6V190.343Z" fill="#C6C0B8" fill-opacity="0.15"/>
<path d="M1393.76 111.474H1385.56V119.839H1380.27V106.182H1393.76V111.474Z" fill="#C6C0B8" fill-opacity="0.15"/>
<path d="M1405.37 111.474V106.182H1418.85V119.839H1413.56V111.474H1405.37Z" fill="#C6C0B8" fill-opacity="0.15"/>
<path d="M1405.54 137.423H1413.73V129.058H1419.02V142.715H1405.54V137.423Z" fill="#C6C0B8" fill-opacity="0.15"/>
<path d="M1380.27 129.058H1385.56V137.423H1393.76V142.715H1380.27V129.058Z" fill="#C6C0B8" fill-opacity="0.15"/>
<path d="M1440.7 119.669H1435.41V106.012H1448.9V111.304H1440.7V119.669Z" fill="#C6C0B8" fill-opacity="0.15"/>
<path d="M1460.51 111.474V106.182H1473.99V119.839H1468.7V111.474H1460.51Z" fill="#C6C0B8" fill-opacity="0.15"/>
<path d="M1460.51 137.423H1468.7V129.058H1473.99V142.715H1460.51V137.423Z" fill="#C6C0B8" fill-opacity="0.15"/>
<path d="M1435.41 142.715V129.058H1440.7V137.423H1448.9V142.715H1435.41Z" fill="#C6C0B8" fill-opacity="0.15"/>
<path d="M1393.93 159.274V164.566H1385.56V172.931H1380.27V159.274H1393.93Z" fill="#C6C0B8" fill-opacity="0.15"/>
<path d="M1405.37 164.566V159.274H1418.85V172.931H1413.56V164.566H1405.37Z" fill="#C6C0B8" fill-opacity="0.15"/>
<path d="M1405.54 190.343H1413.73V181.978H1419.02V195.635H1405.54V190.343Z" fill="#C6C0B8" fill-opacity="0.15"/>
<path d="M1380.27 182.149H1385.56V190.514H1393.76V195.806H1380.27V182.149Z" fill="#C6C0B8" fill-opacity="0.15"/>
<path d="M1440.7 172.76H1435.41V159.103H1448.9V164.395H1440.7V172.76Z" fill="#C6C0B8" fill-opacity="0.15"/>
<path d="M1460.51 164.566V159.274H1473.99V172.931H1468.7V164.566H1460.51Z" fill="#C6C0B8" fill-opacity="0.15"/>
<path d="M1460.51 190.343H1468.7V181.978H1473.99V195.635H1460.51V190.343Z" fill="#C6C0B8" fill-opacity="0.15"/>
<path d="M1435.41 195.806V182.149H1440.7V190.514H1448.9V195.806H1435.41Z" fill="#C6C0B8" fill-opacity="0.15"/>
<path d="M1558.15 217.657H1549.96V225.851H1544.67V212.365H1558.15V217.657Z" fill="#C6C0B8" fill-opacity="0.15"/>
<path d="M1583.25 225.851H1577.96V217.486H1569.76V212.194H1583.25V225.851Z" fill="#C6C0B8" fill-opacity="0.15"/>
<path d="M1577.96 235.24H1583.25V248.897H1569.76V243.605H1577.96V235.24Z" fill="#C6C0B8" fill-opacity="0.15"/>
<path d="M1544.67 248.897V235.24H1549.96V243.605H1558.15V248.897H1544.67Z" fill="#C6C0B8" fill-opacity="0.15"/>
<path d="M1613.29 217.657H1605.1V225.851H1599.81V212.365H1613.29V217.657Z" fill="#C6C0B8" fill-opacity="0.15"/>
<path d="M1638.39 225.851H1633.1V217.486H1624.9V212.194H1638.39V225.851Z" fill="#C6C0B8" fill-opacity="0.15"/>
<path d="M1638.39 235.069V248.727H1624.9V243.435H1633.1V235.069H1638.39Z" fill="#C6C0B8" fill-opacity="0.15"/>
<path d="M1605.1 243.435H1613.29V248.727H1599.81V235.069H1605.1V243.435Z" fill="#C6C0B8" fill-opacity="0.15"/>
<path d="M1655.63 225.851V212.365L1669.12 212.194V217.486H1660.92V225.851H1655.63Z" fill="#C6C0B8" fill-opacity="0.15"/>
<path d="M1688.92 217.657H1680.72V212.365H1694.21V226.022H1688.92V217.657Z" fill="#C6C0B8" fill-opacity="0.15"/>
<path d="M1680.72 243.435H1688.92V235.069H1694.21V248.727H1680.72V243.435Z" fill="#C6C0B8" fill-opacity="0.15"/>
<path d="M1669.29 243.435V248.727H1655.8V235.069H1661.09V243.435H1669.29Z" fill="#C6C0B8" fill-opacity="0.15"/>
<path d="M1270.16 225.851V212.365L1283.65 212.194V217.486H1275.46V225.851H1270.16Z" fill="#C6C0B8" fill-opacity="0.15"/>
<path d="M1295.26 212.365H1308.74V226.022H1303.45V217.657H1295.26V212.365Z" fill="#C6C0B8" fill-opacity="0.15"/>
<path d="M1295.26 243.435H1303.45V235.069H1308.74V248.727H1295.26V243.435Z" fill="#C6C0B8" fill-opacity="0.15"/>
<path d="M1275.46 243.435H1283.65V248.727H1270.16V235.069H1275.46V243.435Z" fill="#C6C0B8" fill-opacity="0.15"/>
<path d="M1325.3 225.851V212.365L1338.79 212.194V217.486H1330.6V225.851H1325.3Z" fill="#C6C0B8" fill-opacity="0.15"/>
<path d="M1350.23 217.657V212.365H1363.71V226.022H1358.42V217.657H1350.23Z" fill="#C6C0B8" fill-opacity="0.15"/>
<path d="M1350.4 243.435H1358.59V235.069H1363.88V248.727H1350.4V243.435Z" fill="#C6C0B8" fill-opacity="0.15"/>
<path d="M1330.6 243.435H1338.79V248.727H1325.3V235.069H1330.6V243.435Z" fill="#C6C0B8" fill-opacity="0.15"/>
<path d="M1393.93 212.365V217.486H1385.56V225.851H1380.27V212.365H1393.93Z" fill="#C6C0B8" fill-opacity="0.15"/>
<path d="M1418.17 225.851H1412.88V217.486H1404.68V212.194H1418.17V225.851Z" fill="#C6C0B8" fill-opacity="0.15"/>
<path d="M1412.88 235.24H1418.17V248.897H1404.68V243.605H1412.88V235.24Z" fill="#C6C0B8" fill-opacity="0.15"/>
<path d="M1380.27 235.24H1385.56V243.605H1393.76V248.897H1380.27V235.24Z" fill="#C6C0B8" fill-opacity="0.15"/>
<path d="M1448.04 217.657H1439.85V225.851H1434.56V212.365H1448.04V217.657Z" fill="#C6C0B8" fill-opacity="0.15"/>
<path d="M1473.14 225.851H1467.85V217.486H1459.65V212.194H1473.14V225.851Z" fill="#C6C0B8" fill-opacity="0.15"/>
<path d="M1467.85 235.24H1473.14V248.897H1459.65V243.605H1467.85V235.24Z" fill="#C6C0B8" fill-opacity="0.15"/>
<path d="M1434.56 248.897V235.24H1439.85V243.605H1448.04V248.897H1434.56Z" fill="#C6C0B8" fill-opacity="0.15"/>
</svg>
