<svg width="145" height="151" viewBox="0 0 145 151" fill="none" xmlns="http://www.w3.org/2000/svg">
<path d="M52.9365 107.863V45.8474C52.9365 43.9204 56.1859 42.8693 58.4301 44.0956L106.678 74.7529C108.673 75.804 108.673 78.0815 106.678 79.1326L58.4301 109.44C56.1859 110.841 52.9365 109.615 52.9365 107.863Z" fill="white"/>
<path fill-rule="evenodd" clip-rule="evenodd" d="M145 75.6214C145 116.927 112.541 150.411 72.5 150.411C32.4594 150.411 0 116.927 0 75.6214C0 34.3164 32.4594 0.832031 72.5 0.832031C112.541 0.832031 145 34.3164 145 75.6214ZM135.333 75.6214C135.333 111.419 107.202 140.439 72.5 140.439C37.7981 140.439 9.66667 111.419 9.66667 75.6214C9.66667 39.8237 37.7981 10.804 72.5 10.804C107.202 10.804 135.333 39.8237 135.333 75.6214Z" fill="white"/>
</svg>
